<svg preserveAspectRatio="xMidYMid meet" width="94" height="46" overflow="visible" style="display: block;" viewBox="0 0 94 46" fill="none" xmlns="http://www.w3.org/2000/svg">
<g id="Logo">
<g id="Union">
<mask id="path-1-outside-1_22_458" maskUnits="userSpaceOnUse" x="3.29639" y="0.0153332" width="87" height="46" fill="black">
<rect fill="white" x="3.29639" y="0.0153332" width="87" height="46"/>
<path d="M38.5491 4.84062C38.3317 4.62344 37.9983 4.47141 37.549 4.38454C36.8388 4.25423 36.0053 4.16012 35.0487 4.10221C34.1066 4.04429 32.8383 4.01533 31.244 4.01533C28.664 4.01533 26.5478 4.18908 24.8955 4.53657C23.2576 4.88405 22.0329 5.43424 21.2212 6.18713C20.424 6.92555 20.0254 7.9101 20.0254 9.14078C20.0254 9.71993 20.1196 10.2412 20.308 10.7045C20.4965 11.1533 20.7356 11.5008 21.0255 11.7469C21.1849 11.8917 21.3879 11.9641 21.6343 11.9641C21.9821 11.9641 22.3155 11.8483 22.6344 11.6166C22.9677 11.3705 23.1344 11.1099 23.1344 10.8348C23.1344 10.719 23.1054 10.6104 23.0474 10.509C22.7576 10.0602 22.6126 9.58962 22.6126 9.09735C22.6126 8.56164 22.7793 8.12728 23.1127 7.79427C23.4605 7.44678 24.0403 7.17892 24.852 6.9907C25.6592 6.80351 26.7675 6.68792 28.1769 6.64393C28.1887 6.64356 28.1978 6.65435 28.1954 6.66591C28.1249 7.00458 28.0612 7.31555 28.0045 7.5988C27.9465 7.8739 27.8958 8.12004 27.8523 8.33722C27.6494 9.30729 27.4465 10.3353 27.2435 11.4212C27.0406 12.5071 26.8594 13.6002 26.7 14.7006C26.613 15.3521 26.4898 16.1195 26.3304 17.0027C26.1855 17.8859 26.055 18.7329 25.9391 19.5437C25.8376 20.34 25.7869 20.9119 25.7869 21.2594C25.7869 21.6359 25.9173 21.9399 26.1782 22.1716C26.4391 22.4032 26.8087 22.5191 27.287 22.5191C27.7363 22.5191 28.1204 22.4105 28.4393 22.1933C28.7582 21.9616 28.9321 21.6359 28.9611 21.216C29.0191 20.4197 29.135 19.3772 29.309 18.0886C29.4829 16.7855 29.6496 15.6417 29.809 14.6572C30.2575 11.9691 30.7493 9.29551 31.2845 6.63633C31.2862 6.62772 31.2939 6.62157 31.3027 6.62168C32.4841 6.63622 33.4357 6.66512 34.1573 6.70837C34.8965 6.73732 35.9184 6.80248 37.2229 6.90383C37.8026 6.94726 38.223 6.86039 38.4839 6.64321C38.7592 6.42603 38.8969 6.07854 38.8969 5.60075C38.8969 5.31117 38.781 5.0578 38.5491 4.84062Z"/>
<path fill-rule="evenodd" clip-rule="evenodd" d="M43.4795 17.8884C43.4816 17.8859 43.483 17.8828 43.4835 17.8795C43.6006 17.123 43.8409 16.3963 44.2044 15.6996C44.7407 14.6572 45.4509 13.8246 46.3351 13.202C47.2337 12.565 48.1831 12.2465 49.1832 12.2465C49.5021 12.2465 49.7122 12.3116 49.8137 12.4419C49.9275 12.5556 50.0204 12.7671 50.0924 13.0762C50.0946 13.0858 50.104 13.092 50.1136 13.0902C50.4128 13.0345 50.7259 13.0066 51.0529 13.0066C51.7632 13.0066 52.1183 13.26 52.1183 13.7667C52.1183 14.0708 52.0096 14.7947 51.7921 15.9385C51.4588 17.6036 51.2921 18.7619 51.2921 19.4134C51.2921 19.6306 51.3428 19.8043 51.4443 19.9346C51.5602 20.0649 51.7052 20.1301 51.8791 20.1301C52.1545 20.1301 52.4879 19.9563 52.8792 19.6089C53.2706 19.2469 53.7996 18.6677 54.4663 17.8714C54.5809 17.7379 54.7048 17.6484 54.8382 17.6028C54.8453 17.6004 54.8503 17.594 54.8508 17.5865C54.9458 16.1706 55.1998 14.8105 55.6127 13.5061C55.7431 13.0862 55.9533 12.7822 56.2432 12.5939C56.5476 12.3912 56.9679 12.2899 57.5042 12.2899C57.7941 12.2899 57.997 12.3261 58.113 12.3985C58.2289 12.4709 58.2869 12.6084 58.2869 12.8111C58.2869 13.0428 58.1782 13.564 57.9608 14.3748C57.8158 14.954 57.6999 15.4607 57.6129 15.8951C57.5328 16.2818 57.465 16.7606 57.4095 17.3315C57.4074 17.3529 57.4379 17.3596 57.4451 17.3393C57.8259 16.2713 58.2731 15.3628 58.7869 14.6137C59.3377 13.8319 59.8957 13.2527 60.461 12.8763C61.0408 12.4854 61.5843 12.2899 62.0916 12.2899C62.5989 12.2899 62.954 12.4057 63.157 12.6374C63.3744 12.869 63.4831 13.2238 63.4831 13.7016C63.4831 14.1649 63.3454 15.0046 63.07 16.2209C62.9771 16.6384 62.9075 16.9723 62.8611 17.2226C62.8571 17.2442 62.887 17.2524 62.8952 17.2321C63.3565 16.0893 63.8641 15.1514 64.418 14.4183C65.0122 13.6509 65.592 13.1079 66.1573 12.7894C66.7226 12.4564 67.2443 12.2899 67.7227 12.2899C68.1865 12.2899 68.5343 12.413 68.7662 12.6591C69.0126 12.8908 69.1358 13.2382 69.1358 13.7016C69.1358 14.078 69.0561 14.7875 68.8967 15.8299C68.7517 16.7131 68.6358 17.5529 68.5488 18.3492C68.4619 19.1311 68.4184 20.007 68.4184 20.9771C68.4184 21.5273 68.3024 21.9254 68.0705 22.1716C67.8531 22.4032 67.4907 22.5191 66.9834 22.5191C66.5051 22.5191 66.1573 22.396 65.9399 22.1499C65.7224 21.9037 65.6137 21.5345 65.6137 21.0422C65.6137 20.4631 65.7152 19.5075 65.9181 18.1755C66.0921 17.0172 66.179 16.2788 66.179 15.9602C66.179 15.7286 66.0993 15.6127 65.9399 15.6127C65.7514 15.6127 65.4833 15.8589 65.1354 16.3512C64.7876 16.829 64.4397 17.466 64.0918 18.2623C63.744 19.0587 63.4613 19.8984 63.2439 20.7816C63.0845 21.4766 62.8961 21.9399 62.6787 22.1716C62.4757 22.4032 62.1424 22.5191 61.6785 22.5191C61.2002 22.5191 60.8379 22.2947 60.5915 21.8458C60.3596 21.3825 60.2436 20.8251 60.2436 20.1735C60.2436 19.6233 60.3161 18.827 60.461 17.7845C60.577 16.8579 60.635 16.2498 60.635 15.9602C60.635 15.7286 60.5552 15.6127 60.3958 15.6127C60.1784 15.6127 59.903 15.8734 59.5696 16.3946C59.2363 16.9158 58.9101 17.5818 58.5913 18.3927C58.2869 19.2035 58.0405 19.9998 57.8521 20.7816C57.6926 21.4621 57.5042 21.9254 57.2868 22.1716C57.0839 22.4032 56.7577 22.5191 56.3084 22.5191C55.7576 22.5191 55.3663 22.2295 55.1344 21.6504C55.015 21.3324 54.9284 20.9097 54.8746 20.3822C54.873 20.3663 54.8532 20.3599 54.8426 20.3718C54.3693 20.9038 53.8743 21.3662 53.3575 21.7589C52.6908 22.2657 52.0458 22.5191 51.4225 22.5191C50.9442 22.5191 50.5022 22.3598 50.0963 22.0413C49.7132 21.7153 49.4204 21.2783 49.2179 20.7303C49.2126 20.716 49.1929 20.7141 49.1848 20.727C48.4343 21.9217 47.4917 22.5191 46.3568 22.5191C45.4581 22.5191 44.7407 22.1933 44.2044 21.5418C43.9696 21.2565 43.7862 20.9324 43.6542 20.5694C43.6498 20.5572 43.6344 20.5533 43.6247 20.5619C43.1751 20.9604 42.6313 21.3377 41.9934 21.6938C41.0223 22.244 39.9787 22.5191 38.8626 22.5191C37.3407 22.5191 36.1594 22.1064 35.3188 21.2811C34.4781 20.4559 34.0578 19.3265 34.0578 17.8931C34.0578 16.8941 34.2679 15.9675 34.6883 15.1132C35.1086 14.2445 35.6884 13.5568 36.4276 13.05C37.1813 12.5433 38.0292 12.2899 38.9713 12.2899C39.812 12.2899 40.486 12.5433 40.9933 13.05C41.5006 13.5423 41.7542 14.2156 41.7542 15.0698C41.7542 16.0688 41.3919 16.9303 40.6672 17.6542C39.9602 18.3605 38.7576 18.9233 37.0595 19.3425C37.0479 19.3454 37.042 19.3586 37.0478 19.3691C37.4132 20.0212 38.0978 20.3473 39.1018 20.3473C39.754 20.3473 40.4932 20.1229 41.3194 19.674C42.1536 19.2143 42.8737 18.619 43.4795 17.8884ZM37.232 15.3521C37.6089 14.7295 38.0654 14.4183 38.6017 14.4183C38.8626 14.4183 39.0655 14.5051 39.2105 14.6789C39.3699 14.8381 39.4496 15.0553 39.4496 15.3304C39.4496 15.8661 39.2032 16.3367 38.7104 16.7421C38.222 17.1439 37.5555 17.4462 36.711 17.6489C36.6996 17.6516 36.6885 17.6429 36.6885 17.6312V17.6108C36.6885 16.7276 36.8697 15.9747 37.232 15.3521ZM48.0526 19.7609C47.7627 20.1373 47.4584 20.3256 47.1395 20.3256C46.8206 20.3256 46.567 20.217 46.3785 19.9998C46.2046 19.7826 46.1176 19.4496 46.1176 19.0008C46.1176 18.19 46.2698 17.4226 46.5742 16.6986C46.8786 15.9747 47.2844 15.3956 47.7917 14.9612C48.307 14.518 48.8646 14.2865 49.4647 14.2669C49.4764 14.2665 49.4854 14.2771 49.483 14.2886L48.6831 18.2623C48.5527 18.8849 48.3425 19.3844 48.0526 19.7609Z"/>
<path fill-rule="evenodd" clip-rule="evenodd" d="M20.3381 27.353C20.3381 27.3429 20.3299 27.3347 20.3198 27.3347H18.7321C18.722 27.3347 18.7138 27.3265 18.7138 27.3165V25.7146C18.7138 25.7045 18.7056 25.6963 18.6956 25.6963H7.31465C7.30457 25.6963 7.29639 25.7045 7.29639 25.7146V41.9666C7.29639 41.9766 7.30457 41.9848 7.31465 41.9848H10.5425C10.5526 41.9848 10.5608 41.9766 10.5608 41.9666V37.1197C10.5608 37.1096 10.569 37.1014 10.579 37.1014H17.0554C17.0655 37.1014 17.0737 37.0933 17.0737 37.0832V35.4813C17.0737 35.4712 17.0818 35.4631 17.0919 35.4631H18.6956C18.7056 35.4631 18.7138 35.4549 18.7138 35.4448V33.8588C18.7138 33.8487 18.722 33.8406 18.7321 33.8406H20.3198C20.3299 33.8406 20.3381 33.8324 20.3381 33.8223V27.353ZM17.0737 33.8223C17.0737 33.8324 17.0655 33.8406 17.0554 33.8406H10.579C10.569 33.8406 10.5608 33.8324 10.5608 33.8223V28.9754C10.5608 28.9654 10.569 28.9572 10.579 28.9572H17.0554C17.0655 28.9572 17.0737 28.9654 17.0737 28.9754V33.8223Z"/>
<path d="M32.0408 28.9595C32.0408 28.9495 32.049 28.9413 32.0591 28.9413H36.9112C36.9213 28.9413 36.9295 28.9331 36.9295 28.923V25.6987C36.9295 25.6886 36.9213 25.6804 36.9112 25.6804H23.9061C23.896 25.6804 23.8878 25.6886 23.8878 25.6987V28.923C23.8878 28.9331 23.896 28.9413 23.9061 28.9413H28.7582C28.7683 28.9413 28.7764 28.9495 28.7764 28.9595V38.6898C28.7764 38.6999 28.7683 38.708 28.7582 38.708H25.52C25.5156 38.708 25.512 38.7116 25.512 38.716C25.512 38.7204 25.5085 38.7239 25.5041 38.7239H23.9061C23.896 38.7239 23.8878 38.7321 23.8878 38.7422V41.9507C23.8878 41.9607 23.896 41.9689 23.9061 41.9689H36.9112C36.9213 41.9689 36.9295 41.9607 36.9295 41.9507V38.7422C36.9295 38.7321 36.9213 38.7239 36.9112 38.7239H35.3132C35.3088 38.7239 35.3052 38.7204 35.3052 38.716C35.3052 38.7116 35.3017 38.708 35.2973 38.708H32.0591C32.049 38.708 32.0408 38.6999 32.0408 38.6898V28.9595Z"/>
<path d="M53.5209 25.7146C53.5209 25.7045 53.5127 25.6963 53.5026 25.6963H50.2907C50.2806 25.6963 50.2724 25.7045 50.2724 25.7146V28.9389C50.2724 28.949 50.2642 28.9572 50.2542 28.9572H48.6505C48.6404 28.9572 48.6323 28.9654 48.6323 28.9754V30.5614C48.6323 30.5715 48.6241 30.5797 48.614 30.5797H45.3861C45.376 30.5797 45.3679 30.5715 45.3679 30.5614V28.9754C45.3679 28.9654 45.3597 28.9572 45.3496 28.9572H43.7619C43.7518 28.9572 43.7436 28.949 43.7436 28.9389V25.7146C43.7436 25.7045 43.7355 25.6963 43.7254 25.6963H40.4975C40.4874 25.6963 40.4792 25.7045 40.4792 25.7146V30.5614C40.4792 30.5715 40.4874 30.5797 40.4975 30.5797H42.1011C42.1112 30.5797 42.1194 30.5879 42.1194 30.5979V32.1998C42.1194 32.2099 42.1276 32.2181 42.1376 32.2181H43.7254C43.7355 32.2181 43.7436 32.2263 43.7436 32.2363V33.8223C43.7436 33.8324 43.7518 33.8406 43.7619 33.8406H45.3496C45.3597 33.8406 45.3679 33.8487 45.3679 33.8588V35.4448C45.3679 35.4549 45.3597 35.4631 45.3496 35.4631H43.7619C43.7518 35.4631 43.7436 35.4712 43.7436 35.4813V37.0832C43.7436 37.0933 43.7355 37.1014 43.7254 37.1014H42.1376C42.1276 37.1014 42.1194 37.1096 42.1194 37.1197V38.7057C42.1194 38.7158 42.1112 38.7239 42.1011 38.7239H40.4975C40.4874 38.7239 40.4792 38.7321 40.4792 38.7422V41.9666C40.4792 41.9766 40.4874 41.9848 40.4975 41.9848H43.7254C43.7355 41.9848 43.7436 41.9766 43.7436 41.9666V40.3806C43.7436 40.3705 43.7518 40.3623 43.7619 40.3623H45.3496C45.3597 40.3623 45.3679 40.3542 45.3679 40.3441V38.7422C45.3679 38.7321 45.376 38.7239 45.3861 38.7239H48.614C48.6241 38.7239 48.6323 38.7321 48.6323 38.7422V40.3441C48.6323 40.3542 48.6404 40.3623 48.6505 40.3623H50.2542C50.2642 40.3623 50.2724 40.3705 50.2724 40.3806V41.9666C50.2724 41.9766 50.2806 41.9848 50.2907 41.9848H53.5026C53.5127 41.9848 53.5209 41.9766 53.5209 41.9666V38.7422C53.5209 38.7321 53.5127 38.7239 53.5026 38.7239H51.9149C51.9048 38.7239 51.8967 38.7158 51.8967 38.7057V37.1197C51.8967 37.1096 51.8885 37.1014 51.8784 37.1014H50.2907C50.2806 37.1014 50.2724 37.0933 50.2724 37.0832V35.4813C50.2724 35.4712 50.2642 35.4631 50.2542 35.4631H48.6505C48.6404 35.4631 48.6323 35.4549 48.6323 35.4448V33.8588C48.6323 33.8487 48.6404 33.8406 48.6505 33.8406H50.2542C50.2642 33.8406 50.2724 33.8324 50.2724 33.8223V32.2363C50.2724 32.2263 50.2806 32.2181 50.2907 32.2181H51.8784C51.8885 32.2181 51.8967 32.2099 51.8967 32.1998V30.5979C51.8967 30.5879 51.9048 30.5797 51.9149 30.5797H53.5026C53.5127 30.5797 53.5209 30.5715 53.5209 30.5614V25.7146Z"/>
<path d="M70.1123 25.6987C70.1123 25.6886 70.1041 25.6804 70.094 25.6804H57.0889C57.0788 25.6804 57.0706 25.6886 57.0706 25.6987V41.9507C57.0706 41.9607 57.0788 41.9689 57.0889 41.9689H70.094C70.1041 41.9689 70.1123 41.9607 70.1123 41.9507V38.7263C70.1123 38.7162 70.1041 38.708 70.094 38.708H60.3533C60.3432 38.708 60.335 38.6999 60.335 38.6898V35.4813C60.335 35.4712 60.3432 35.4631 60.3533 35.4631H66.8297C66.8397 35.4631 66.8479 35.4549 66.8479 35.4448V33.8429C66.8479 33.8328 66.8561 33.8247 66.8662 33.8247H68.4698C68.4799 33.8247 68.4881 33.8165 68.4881 33.8064V32.2204C68.4881 32.2103 68.4799 32.2022 68.4698 32.2022H60.3533C60.3432 32.2022 60.335 32.194 60.335 32.1839V28.9595C60.335 28.9495 60.3432 28.9413 60.3533 28.9413H70.094C70.1041 28.9413 70.1123 28.9331 70.1123 28.923V25.6987Z"/>
<path d="M86.7037 37.1197C86.7037 37.1096 86.6956 37.1014 86.6855 37.1014H83.4576C83.4475 37.1014 83.4393 37.1096 83.4393 37.1197V38.7057C83.4393 38.7158 83.4312 38.7239 83.4211 38.7239H76.9288C76.9187 38.7239 76.9105 38.7158 76.9105 38.7057V25.7146C76.9105 25.7045 76.9024 25.6963 76.8923 25.6963H73.6803C73.6702 25.6963 73.6621 25.7045 73.6621 25.7146V41.9666C73.6621 41.9766 73.6702 41.9848 73.6803 41.9848H86.6855C86.6956 41.9848 86.7037 41.9766 86.7037 41.9666V37.1197Z"/>
</mask>
<path d="M38.5491 4.84062C38.3317 4.62344 37.9983 4.47141 37.549 4.38454C36.8388 4.25423 36.0053 4.16012 35.0487 4.10221C34.1066 4.04429 32.8383 4.01533 31.244 4.01533C28.664 4.01533 26.5478 4.18908 24.8955 4.53657C23.2576 4.88405 22.0329 5.43424 21.2212 6.18713C20.424 6.92555 20.0254 7.9101 20.0254 9.14078C20.0254 9.71993 20.1196 10.2412 20.308 10.7045C20.4965 11.1533 20.7356 11.5008 21.0255 11.7469C21.1849 11.8917 21.3879 11.9641 21.6343 11.9641C21.9821 11.9641 22.3155 11.8483 22.6344 11.6166C22.9677 11.3705 23.1344 11.1099 23.1344 10.8348C23.1344 10.719 23.1054 10.6104 23.0474 10.509C22.7576 10.0602 22.6126 9.58962 22.6126 9.09735C22.6126 8.56164 22.7793 8.12728 23.1127 7.79427C23.4605 7.44678 24.0403 7.17892 24.852 6.9907C25.6592 6.80351 26.7675 6.68792 28.1769 6.64393C28.1887 6.64356 28.1978 6.65435 28.1954 6.66591C28.1249 7.00458 28.0612 7.31555 28.0045 7.5988C27.9465 7.8739 27.8958 8.12004 27.8523 8.33722C27.6494 9.30729 27.4465 10.3353 27.2435 11.4212C27.0406 12.5071 26.8594 13.6002 26.7 14.7006C26.613 15.3521 26.4898 16.1195 26.3304 17.0027C26.1855 17.8859 26.055 18.7329 25.9391 19.5437C25.8376 20.34 25.7869 20.9119 25.7869 21.2594C25.7869 21.6359 25.9173 21.9399 26.1782 22.1716C26.4391 22.4032 26.8087 22.5191 27.287 22.5191C27.7363 22.5191 28.1204 22.4105 28.4393 22.1933C28.7582 21.9616 28.9321 21.6359 28.9611 21.216C29.0191 20.4197 29.135 19.3772 29.309 18.0886C29.4829 16.7855 29.6496 15.6417 29.809 14.6572C30.2575 11.9691 30.7493 9.29551 31.2845 6.63633C31.2862 6.62772 31.2939 6.62157 31.3027 6.62168C32.4841 6.63622 33.4357 6.66512 34.1573 6.70837C34.8965 6.73732 35.9184 6.80248 37.2229 6.90383C37.8026 6.94726 38.223 6.86039 38.4839 6.64321C38.7592 6.42603 38.8969 6.07854 38.8969 5.60075C38.8969 5.31117 38.781 5.0578 38.5491 4.84062Z" fill="var(--fill-0, black)"/>
<path fill-rule="evenodd" clip-rule="evenodd" d="M43.4795 17.8884C43.4816 17.8859 43.483 17.8828 43.4835 17.8795C43.6006 17.123 43.8409 16.3963 44.2044 15.6996C44.7407 14.6572 45.4509 13.8246 46.3351 13.202C47.2337 12.565 48.1831 12.2465 49.1832 12.2465C49.5021 12.2465 49.7122 12.3116 49.8137 12.4419C49.9275 12.5556 50.0204 12.7671 50.0924 13.0762C50.0946 13.0858 50.104 13.092 50.1136 13.0902C50.4128 13.0345 50.7259 13.0066 51.0529 13.0066C51.7632 13.0066 52.1183 13.26 52.1183 13.7667C52.1183 14.0708 52.0096 14.7947 51.7921 15.9385C51.4588 17.6036 51.2921 18.7619 51.2921 19.4134C51.2921 19.6306 51.3428 19.8043 51.4443 19.9346C51.5602 20.0649 51.7052 20.1301 51.8791 20.1301C52.1545 20.1301 52.4879 19.9563 52.8792 19.6089C53.2706 19.2469 53.7996 18.6677 54.4663 17.8714C54.5809 17.7379 54.7048 17.6484 54.8382 17.6028C54.8453 17.6004 54.8503 17.594 54.8508 17.5865C54.9458 16.1706 55.1998 14.8105 55.6127 13.5061C55.7431 13.0862 55.9533 12.7822 56.2432 12.5939C56.5476 12.3912 56.9679 12.2899 57.5042 12.2899C57.7941 12.2899 57.997 12.3261 58.113 12.3985C58.2289 12.4709 58.2869 12.6084 58.2869 12.8111C58.2869 13.0428 58.1782 13.564 57.9608 14.3748C57.8158 14.954 57.6999 15.4607 57.6129 15.8951C57.5328 16.2818 57.465 16.7606 57.4095 17.3315C57.4074 17.3529 57.4379 17.3596 57.4451 17.3393C57.8259 16.2713 58.2731 15.3628 58.7869 14.6137C59.3377 13.8319 59.8957 13.2527 60.461 12.8763C61.0408 12.4854 61.5843 12.2899 62.0916 12.2899C62.5989 12.2899 62.954 12.4057 63.157 12.6374C63.3744 12.869 63.4831 13.2238 63.4831 13.7016C63.4831 14.1649 63.3454 15.0046 63.07 16.2209C62.9771 16.6384 62.9075 16.9723 62.8611 17.2226C62.8571 17.2442 62.887 17.2524 62.8952 17.2321C63.3565 16.0893 63.8641 15.1514 64.418 14.4183C65.0122 13.6509 65.592 13.1079 66.1573 12.7894C66.7226 12.4564 67.2443 12.2899 67.7227 12.2899C68.1865 12.2899 68.5343 12.413 68.7662 12.6591C69.0126 12.8908 69.1358 13.2382 69.1358 13.7016C69.1358 14.078 69.0561 14.7875 68.8967 15.8299C68.7517 16.7131 68.6358 17.5529 68.5488 18.3492C68.4619 19.1311 68.4184 20.007 68.4184 20.9771C68.4184 21.5273 68.3024 21.9254 68.0705 22.1716C67.8531 22.4032 67.4907 22.5191 66.9834 22.5191C66.5051 22.5191 66.1573 22.396 65.9399 22.1499C65.7224 21.9037 65.6137 21.5345 65.6137 21.0422C65.6137 20.4631 65.7152 19.5075 65.9181 18.1755C66.0921 17.0172 66.179 16.2788 66.179 15.9602C66.179 15.7286 66.0993 15.6127 65.9399 15.6127C65.7514 15.6127 65.4833 15.8589 65.1354 16.3512C64.7876 16.829 64.4397 17.466 64.0918 18.2623C63.744 19.0587 63.4613 19.8984 63.2439 20.7816C63.0845 21.4766 62.8961 21.9399 62.6787 22.1716C62.4757 22.4032 62.1424 22.5191 61.6785 22.5191C61.2002 22.5191 60.8379 22.2947 60.5915 21.8458C60.3596 21.3825 60.2436 20.8251 60.2436 20.1735C60.2436 19.6233 60.3161 18.827 60.461 17.7845C60.577 16.8579 60.635 16.2498 60.635 15.9602C60.635 15.7286 60.5552 15.6127 60.3958 15.6127C60.1784 15.6127 59.903 15.8734 59.5696 16.3946C59.2363 16.9158 58.9101 17.5818 58.5913 18.3927C58.2869 19.2035 58.0405 19.9998 57.8521 20.7816C57.6926 21.4621 57.5042 21.9254 57.2868 22.1716C57.0839 22.4032 56.7577 22.5191 56.3084 22.5191C55.7576 22.5191 55.3663 22.2295 55.1344 21.6504C55.015 21.3324 54.9284 20.9097 54.8746 20.3822C54.873 20.3663 54.8532 20.3599 54.8426 20.3718C54.3693 20.9038 53.8743 21.3662 53.3575 21.7589C52.6908 22.2657 52.0458 22.5191 51.4225 22.5191C50.9442 22.5191 50.5022 22.3598 50.0963 22.0413C49.7132 21.7153 49.4204 21.2783 49.2179 20.7303C49.2126 20.716 49.1929 20.7141 49.1848 20.727C48.4343 21.9217 47.4917 22.5191 46.3568 22.5191C45.4581 22.5191 44.7407 22.1933 44.2044 21.5418C43.9696 21.2565 43.7862 20.9324 43.6542 20.5694C43.6498 20.5572 43.6344 20.5533 43.6247 20.5619C43.1751 20.9604 42.6313 21.3377 41.9934 21.6938C41.0223 22.244 39.9787 22.5191 38.8626 22.5191C37.3407 22.5191 36.1594 22.1064 35.3188 21.2811C34.4781 20.4559 34.0578 19.3265 34.0578 17.8931C34.0578 16.8941 34.2679 15.9675 34.6883 15.1132C35.1086 14.2445 35.6884 13.5568 36.4276 13.05C37.1813 12.5433 38.0292 12.2899 38.9713 12.2899C39.812 12.2899 40.486 12.5433 40.9933 13.05C41.5006 13.5423 41.7542 14.2156 41.7542 15.0698C41.7542 16.0688 41.3919 16.9303 40.6672 17.6542C39.9602 18.3605 38.7576 18.9233 37.0595 19.3425C37.0479 19.3454 37.042 19.3586 37.0478 19.3691C37.4132 20.0212 38.0978 20.3473 39.1018 20.3473C39.754 20.3473 40.4932 20.1229 41.3194 19.674C42.1536 19.2143 42.8737 18.619 43.4795 17.8884ZM37.232 15.3521C37.6089 14.7295 38.0654 14.4183 38.6017 14.4183C38.8626 14.4183 39.0655 14.5051 39.2105 14.6789C39.3699 14.8381 39.4496 15.0553 39.4496 15.3304C39.4496 15.8661 39.2032 16.3367 38.7104 16.7421C38.222 17.1439 37.5555 17.4462 36.711 17.6489C36.6996 17.6516 36.6885 17.6429 36.6885 17.6312V17.6108C36.6885 16.7276 36.8697 15.9747 37.232 15.3521ZM48.0526 19.7609C47.7627 20.1373 47.4584 20.3256 47.1395 20.3256C46.8206 20.3256 46.567 20.217 46.3785 19.9998C46.2046 19.7826 46.1176 19.4496 46.1176 19.0008C46.1176 18.19 46.2698 17.4226 46.5742 16.6986C46.8786 15.9747 47.2844 15.3956 47.7917 14.9612C48.307 14.518 48.8646 14.2865 49.4647 14.2669C49.4764 14.2665 49.4854 14.2771 49.483 14.2886L48.6831 18.2623C48.5527 18.8849 48.3425 19.3844 48.0526 19.7609Z" fill="var(--fill-0, black)"/>
<path fill-rule="evenodd" clip-rule="evenodd" d="M20.3381 27.353C20.3381 27.3429 20.3299 27.3347 20.3198 27.3347H18.7321C18.722 27.3347 18.7138 27.3265 18.7138 27.3165V25.7146C18.7138 25.7045 18.7056 25.6963 18.6956 25.6963H7.31465C7.30457 25.6963 7.29639 25.7045 7.29639 25.7146V41.9666C7.29639 41.9766 7.30457 41.9848 7.31465 41.9848H10.5425C10.5526 41.9848 10.5608 41.9766 10.5608 41.9666V37.1197C10.5608 37.1096 10.569 37.1014 10.579 37.1014H17.0554C17.0655 37.1014 17.0737 37.0933 17.0737 37.0832V35.4813C17.0737 35.4712 17.0818 35.4631 17.0919 35.4631H18.6956C18.7056 35.4631 18.7138 35.4549 18.7138 35.4448V33.8588C18.7138 33.8487 18.722 33.8406 18.7321 33.8406H20.3198C20.3299 33.8406 20.3381 33.8324 20.3381 33.8223V27.353ZM17.0737 33.8223C17.0737 33.8324 17.0655 33.8406 17.0554 33.8406H10.579C10.569 33.8406 10.5608 33.8324 10.5608 33.8223V28.9754C10.5608 28.9654 10.569 28.9572 10.579 28.9572H17.0554C17.0655 28.9572 17.0737 28.9654 17.0737 28.9754V33.8223Z" fill="var(--fill-0, black)"/>
<path d="M32.0408 28.9595C32.0408 28.9495 32.049 28.9413 32.0591 28.9413H36.9112C36.9213 28.9413 36.9295 28.9331 36.9295 28.923V25.6987C36.9295 25.6886 36.9213 25.6804 36.9112 25.6804H23.9061C23.896 25.6804 23.8878 25.6886 23.8878 25.6987V28.923C23.8878 28.9331 23.896 28.9413 23.9061 28.9413H28.7582C28.7683 28.9413 28.7764 28.9495 28.7764 28.9595V38.6898C28.7764 38.6999 28.7683 38.708 28.7582 38.708H25.52C25.5156 38.708 25.512 38.7116 25.512 38.716C25.512 38.7204 25.5085 38.7239 25.5041 38.7239H23.9061C23.896 38.7239 23.8878 38.7321 23.8878 38.7422V41.9507C23.8878 41.9607 23.896 41.9689 23.9061 41.9689H36.9112C36.9213 41.9689 36.9295 41.9607 36.9295 41.9507V38.7422C36.9295 38.7321 36.9213 38.7239 36.9112 38.7239H35.3132C35.3088 38.7239 35.3052 38.7204 35.3052 38.716C35.3052 38.7116 35.3017 38.708 35.2973 38.708H32.0591C32.049 38.708 32.0408 38.6999 32.0408 38.6898V28.9595Z" fill="var(--fill-0, black)"/>
<path d="M53.5209 25.7146C53.5209 25.7045 53.5127 25.6963 53.5026 25.6963H50.2907C50.2806 25.6963 50.2724 25.7045 50.2724 25.7146V28.9389C50.2724 28.949 50.2642 28.9572 50.2542 28.9572H48.6505C48.6404 28.9572 48.6323 28.9654 48.6323 28.9754V30.5614C48.6323 30.5715 48.6241 30.5797 48.614 30.5797H45.3861C45.376 30.5797 45.3679 30.5715 45.3679 30.5614V28.9754C45.3679 28.9654 45.3597 28.9572 45.3496 28.9572H43.7619C43.7518 28.9572 43.7436 28.949 43.7436 28.9389V25.7146C43.7436 25.7045 43.7355 25.6963 43.7254 25.6963H40.4975C40.4874 25.6963 40.4792 25.7045 40.4792 25.7146V30.5614C40.4792 30.5715 40.4874 30.5797 40.4975 30.5797H42.1011C42.1112 30.5797 42.1194 30.5879 42.1194 30.5979V32.1998C42.1194 32.2099 42.1276 32.2181 42.1376 32.2181H43.7254C43.7355 32.2181 43.7436 32.2263 43.7436 32.2363V33.8223C43.7436 33.8324 43.7518 33.8406 43.7619 33.8406H45.3496C45.3597 33.8406 45.3679 33.8487 45.3679 33.8588V35.4448C45.3679 35.4549 45.3597 35.4631 45.3496 35.4631H43.7619C43.7518 35.4631 43.7436 35.4712 43.7436 35.4813V37.0832C43.7436 37.0933 43.7355 37.1014 43.7254 37.1014H42.1376C42.1276 37.1014 42.1194 37.1096 42.1194 37.1197V38.7057C42.1194 38.7158 42.1112 38.7239 42.1011 38.7239H40.4975C40.4874 38.7239 40.4792 38.7321 40.4792 38.7422V41.9666C40.4792 41.9766 40.4874 41.9848 40.4975 41.9848H43.7254C43.7355 41.9848 43.7436 41.9766 43.7436 41.9666V40.3806C43.7436 40.3705 43.7518 40.3623 43.7619 40.3623H45.3496C45.3597 40.3623 45.3679 40.3542 45.3679 40.3441V38.7422C45.3679 38.7321 45.376 38.7239 45.3861 38.7239H48.614C48.6241 38.7239 48.6323 38.7321 48.6323 38.7422V40.3441C48.6323 40.3542 48.6404 40.3623 48.6505 40.3623H50.2542C50.2642 40.3623 50.2724 40.3705 50.2724 40.3806V41.9666C50.2724 41.9766 50.2806 41.9848 50.2907 41.9848H53.5026C53.5127 41.9848 53.5209 41.9766 53.5209 41.9666V38.7422C53.5209 38.7321 53.5127 38.7239 53.5026 38.7239H51.9149C51.9048 38.7239 51.8967 38.7158 51.8967 38.7057V37.1197C51.8967 37.1096 51.8885 37.1014 51.8784 37.1014H50.2907C50.2806 37.1014 50.2724 37.0933 50.2724 37.0832V35.4813C50.2724 35.4712 50.2642 35.4631 50.2542 35.4631H48.6505C48.6404 35.4631 48.6323 35.4549 48.6323 35.4448V33.8588C48.6323 33.8487 48.6404 33.8406 48.6505 33.8406H50.2542C50.2642 33.8406 50.2724 33.8324 50.2724 33.8223V32.2363C50.2724 32.2263 50.2806 32.2181 50.2907 32.2181H51.8784C51.8885 32.2181 51.8967 32.2099 51.8967 32.1998V30.5979C51.8967 30.5879 51.9048 30.5797 51.9149 30.5797H53.5026C53.5127 30.5797 53.5209 30.5715 53.5209 30.5614V25.7146Z" fill="var(--fill-0, black)"/>
<path d="M70.1123 25.6987C70.1123 25.6886 70.1041 25.6804 70.094 25.6804H57.0889C57.0788 25.6804 57.0706 25.6886 57.0706 25.6987V41.9507C57.0706 41.9607 57.0788 41.9689 57.0889 41.9689H70.094C70.1041 41.9689 70.1123 41.9607 70.1123 41.9507V38.7263C70.1123 38.7162 70.1041 38.708 70.094 38.708H60.3533C60.3432 38.708 60.335 38.6999 60.335 38.6898V35.4813C60.335 35.4712 60.3432 35.4631 60.3533 35.4631H66.8297C66.8397 35.4631 66.8479 35.4549 66.8479 35.4448V33.8429C66.8479 33.8328 66.8561 33.8247 66.8662 33.8247H68.4698C68.4799 33.8247 68.4881 33.8165 68.4881 33.8064V32.2204C68.4881 32.2103 68.4799 32.2022 68.4698 32.2022H60.3533C60.3432 32.2022 60.335 32.194 60.335 32.1839V28.9595C60.335 28.9495 60.3432 28.9413 60.3533 28.9413H70.094C70.1041 28.9413 70.1123 28.9331 70.1123 28.923V25.6987Z" fill="var(--fill-0, black)"/>
<path d="M86.7037 37.1197C86.7037 37.1096 86.6956 37.1014 86.6855 37.1014H83.4576C83.4475 37.1014 83.4393 37.1096 83.4393 37.1197V38.7057C83.4393 38.7158 83.4312 38.7239 83.4211 38.7239H76.9288C76.9187 38.7239 76.9105 38.7158 76.9105 38.7057V25.7146C76.9105 25.7045 76.9024 25.6963 76.8923 25.6963H73.6803C73.6702 25.6963 73.6621 25.7045 73.6621 25.7146V41.9666C73.6621 41.9766 73.6702 41.9848 73.6803 41.9848H86.6855C86.6956 41.9848 86.7037 41.9766 86.7037 41.9666V37.1197Z" fill="var(--fill-0, black)"/>
<path d="M38.5491 4.84062C38.3317 4.62344 37.9983 4.47141 37.549 4.38454C36.8388 4.25423 36.0053 4.16012 35.0487 4.10221C34.1066 4.04429 32.8383 4.01533 31.244 4.01533C28.664 4.01533 26.5478 4.18908 24.8955 4.53657C23.2576 4.88405 22.0329 5.43424 21.2212 6.18713C20.424 6.92555 20.0254 7.9101 20.0254 9.14078C20.0254 9.71993 20.1196 10.2412 20.308 10.7045C20.4965 11.1533 20.7356 11.5008 21.0255 11.7469C21.1849 11.8917 21.3879 11.9641 21.6343 11.9641C21.9821 11.9641 22.3155 11.8483 22.6344 11.6166C22.9677 11.3705 23.1344 11.1099 23.1344 10.8348C23.1344 10.719 23.1054 10.6104 23.0474 10.509C22.7576 10.0602 22.6126 9.58962 22.6126 9.09735C22.6126 8.56164 22.7793 8.12728 23.1127 7.79427C23.4605 7.44678 24.0403 7.17892 24.852 6.9907C25.6592 6.80351 26.7675 6.68792 28.1769 6.64393C28.1887 6.64356 28.1978 6.65435 28.1954 6.66591C28.1249 7.00458 28.0612 7.31555 28.0045 7.5988C27.9465 7.8739 27.8958 8.12004 27.8523 8.33722C27.6494 9.30729 27.4465 10.3353 27.2435 11.4212C27.0406 12.5071 26.8594 13.6002 26.7 14.7006C26.613 15.3521 26.4898 16.1195 26.3304 17.0027C26.1855 17.8859 26.055 18.7329 25.9391 19.5437C25.8376 20.34 25.7869 20.9119 25.7869 21.2594C25.7869 21.6359 25.9173 21.9399 26.1782 22.1716C26.4391 22.4032 26.8087 22.5191 27.287 22.5191C27.7363 22.5191 28.1204 22.4105 28.4393 22.1933C28.7582 21.9616 28.9321 21.6359 28.9611 21.216C29.0191 20.4197 29.135 19.3772 29.309 18.0886C29.4829 16.7855 29.6496 15.6417 29.809 14.6572C30.2575 11.9691 30.7493 9.29551 31.2845 6.63633C31.2862 6.62772 31.2939 6.62157 31.3027 6.62168C32.4841 6.63622 33.4357 6.66512 34.1573 6.70837C34.8965 6.73732 35.9184 6.80248 37.2229 6.90383C37.8026 6.94726 38.223 6.86039 38.4839 6.64321C38.7592 6.42603 38.8969 6.07854 38.8969 5.60075C38.8969 5.31117 38.781 5.0578 38.5491 4.84062Z" stroke="var(--stroke-0, white)" stroke-width="6.80825" mask="url(#path-1-outside-1_22_458)"/>
<path fill-rule="evenodd" clip-rule="evenodd" d="M43.4795 17.8884C43.4816 17.8859 43.483 17.8828 43.4835 17.8795C43.6006 17.123 43.8409 16.3963 44.2044 15.6996C44.7407 14.6572 45.4509 13.8246 46.3351 13.202C47.2337 12.565 48.1831 12.2465 49.1832 12.2465C49.5021 12.2465 49.7122 12.3116 49.8137 12.4419C49.9275 12.5556 50.0204 12.7671 50.0924 13.0762C50.0946 13.0858 50.104 13.092 50.1136 13.0902C50.4128 13.0345 50.7259 13.0066 51.0529 13.0066C51.7632 13.0066 52.1183 13.26 52.1183 13.7667C52.1183 14.0708 52.0096 14.7947 51.7921 15.9385C51.4588 17.6036 51.2921 18.7619 51.2921 19.4134C51.2921 19.6306 51.3428 19.8043 51.4443 19.9346C51.5602 20.0649 51.7052 20.1301 51.8791 20.1301C52.1545 20.1301 52.4879 19.9563 52.8792 19.6089C53.2706 19.2469 53.7996 18.6677 54.4663 17.8714C54.5809 17.7379 54.7048 17.6484 54.8382 17.6028C54.8453 17.6004 54.8503 17.594 54.8508 17.5865C54.9458 16.1706 55.1998 14.8105 55.6127 13.5061C55.7431 13.0862 55.9533 12.7822 56.2432 12.5939C56.5476 12.3912 56.9679 12.2899 57.5042 12.2899C57.7941 12.2899 57.997 12.3261 58.113 12.3985C58.2289 12.4709 58.2869 12.6084 58.2869 12.8111C58.2869 13.0428 58.1782 13.564 57.9608 14.3748C57.8158 14.954 57.6999 15.4607 57.6129 15.8951C57.5328 16.2818 57.465 16.7606 57.4095 17.3315C57.4074 17.3529 57.4379 17.3596 57.4451 17.3393C57.8259 16.2713 58.2731 15.3628 58.7869 14.6137C59.3377 13.8319 59.8957 13.2527 60.461 12.8763C61.0408 12.4854 61.5843 12.2899 62.0916 12.2899C62.5989 12.2899 62.954 12.4057 63.157 12.6374C63.3744 12.869 63.4831 13.2238 63.4831 13.7016C63.4831 14.1649 63.3454 15.0046 63.07 16.2209C62.9771 16.6384 62.9075 16.9723 62.8611 17.2226C62.8571 17.2442 62.887 17.2524 62.8952 17.2321C63.3565 16.0893 63.8641 15.1514 64.418 14.4183C65.0122 13.6509 65.592 13.1079 66.1573 12.7894C66.7226 12.4564 67.2443 12.2899 67.7227 12.2899C68.1865 12.2899 68.5343 12.413 68.7662 12.6591C69.0126 12.8908 69.1358 13.2382 69.1358 13.7016C69.1358 14.078 69.0561 14.7875 68.8967 15.8299C68.7517 16.7131 68.6358 17.5529 68.5488 18.3492C68.4619 19.1311 68.4184 20.007 68.4184 20.9771C68.4184 21.5273 68.3024 21.9254 68.0705 22.1716C67.8531 22.4032 67.4907 22.5191 66.9834 22.5191C66.5051 22.5191 66.1573 22.396 65.9399 22.1499C65.7224 21.9037 65.6137 21.5345 65.6137 21.0422C65.6137 20.4631 65.7152 19.5075 65.9181 18.1755C66.0921 17.0172 66.179 16.2788 66.179 15.9602C66.179 15.7286 66.0993 15.6127 65.9399 15.6127C65.7514 15.6127 65.4833 15.8589 65.1354 16.3512C64.7876 16.829 64.4397 17.466 64.0918 18.2623C63.744 19.0587 63.4613 19.8984 63.2439 20.7816C63.0845 21.4766 62.8961 21.9399 62.6787 22.1716C62.4757 22.4032 62.1424 22.5191 61.6785 22.5191C61.2002 22.5191 60.8379 22.2947 60.5915 21.8458C60.3596 21.3825 60.2436 20.8251 60.2436 20.1735C60.2436 19.6233 60.3161 18.827 60.461 17.7845C60.577 16.8579 60.635 16.2498 60.635 15.9602C60.635 15.7286 60.5552 15.6127 60.3958 15.6127C60.1784 15.6127 59.903 15.8734 59.5696 16.3946C59.2363 16.9158 58.9101 17.5818 58.5913 18.3927C58.2869 19.2035 58.0405 19.9998 57.8521 20.7816C57.6926 21.4621 57.5042 21.9254 57.2868 22.1716C57.0839 22.4032 56.7577 22.5191 56.3084 22.5191C55.7576 22.5191 55.3663 22.2295 55.1344 21.6504C55.015 21.3324 54.9284 20.9097 54.8746 20.3822C54.873 20.3663 54.8532 20.3599 54.8426 20.3718C54.3693 20.9038 53.8743 21.3662 53.3575 21.7589C52.6908 22.2657 52.0458 22.5191 51.4225 22.5191C50.9442 22.5191 50.5022 22.3598 50.0963 22.0413C49.7132 21.7153 49.4204 21.2783 49.2179 20.7303C49.2126 20.716 49.1929 20.7141 49.1848 20.727C48.4343 21.9217 47.4917 22.5191 46.3568 22.5191C45.4581 22.5191 44.7407 22.1933 44.2044 21.5418C43.9696 21.2565 43.7862 20.9324 43.6542 20.5694C43.6498 20.5572 43.6344 20.5533 43.6247 20.5619C43.1751 20.9604 42.6313 21.3377 41.9934 21.6938C41.0223 22.244 39.9787 22.5191 38.8626 22.5191C37.3407 22.5191 36.1594 22.1064 35.3188 21.2811C34.4781 20.4559 34.0578 19.3265 34.0578 17.8931C34.0578 16.8941 34.2679 15.9675 34.6883 15.1132C35.1086 14.2445 35.6884 13.5568 36.4276 13.05C37.1813 12.5433 38.0292 12.2899 38.9713 12.2899C39.812 12.2899 40.486 12.5433 40.9933 13.05C41.5006 13.5423 41.7542 14.2156 41.7542 15.0698C41.7542 16.0688 41.3919 16.9303 40.6672 17.6542C39.9602 18.3605 38.7576 18.9233 37.0595 19.3425C37.0479 19.3454 37.042 19.3586 37.0478 19.3691C37.4132 20.0212 38.0978 20.3473 39.1018 20.3473C39.754 20.3473 40.4932 20.1229 41.3194 19.674C42.1536 19.2143 42.8737 18.619 43.4795 17.8884ZM37.232 15.3521C37.6089 14.7295 38.0654 14.4183 38.6017 14.4183C38.8626 14.4183 39.0655 14.5051 39.2105 14.6789C39.3699 14.8381 39.4496 15.0553 39.4496 15.3304C39.4496 15.8661 39.2032 16.3367 38.7104 16.7421C38.222 17.1439 37.5555 17.4462 36.711 17.6489C36.6996 17.6516 36.6885 17.6429 36.6885 17.6312V17.6108C36.6885 16.7276 36.8697 15.9747 37.232 15.3521ZM48.0526 19.7609C47.7627 20.1373 47.4584 20.3256 47.1395 20.3256C46.8206 20.3256 46.567 20.217 46.3785 19.9998C46.2046 19.7826 46.1176 19.4496 46.1176 19.0008C46.1176 18.19 46.2698 17.4226 46.5742 16.6986C46.8786 15.9747 47.2844 15.3956 47.7917 14.9612C48.307 14.518 48.8646 14.2865 49.4647 14.2669C49.4764 14.2665 49.4854 14.2771 49.483 14.2886L48.6831 18.2623C48.5527 18.8849 48.3425 19.3844 48.0526 19.7609Z" stroke="var(--stroke-0, white)" stroke-width="6.80825" mask="url(#path-1-outside-1_22_458)"/>
<path fill-rule="evenodd" clip-rule="evenodd" d="M20.3381 27.353C20.3381 27.3429 20.3299 27.3347 20.3198 27.3347H18.7321C18.722 27.3347 18.7138 27.3265 18.7138 27.3165V25.7146C18.7138 25.7045 18.7056 25.6963 18.6956 25.6963H7.31465C7.30457 25.6963 7.29639 25.7045 7.29639 25.7146V41.9666C7.29639 41.9766 7.30457 41.9848 7.31465 41.9848H10.5425C10.5526 41.9848 10.5608 41.9766 10.5608 41.9666V37.1197C10.5608 37.1096 10.569 37.1014 10.579 37.1014H17.0554C17.0655 37.1014 17.0737 37.0933 17.0737 37.0832V35.4813C17.0737 35.4712 17.0818 35.4631 17.0919 35.4631H18.6956C18.7056 35.4631 18.7138 35.4549 18.7138 35.4448V33.8588C18.7138 33.8487 18.722 33.8406 18.7321 33.8406H20.3198C20.3299 33.8406 20.3381 33.8324 20.3381 33.8223V27.353ZM17.0737 33.8223C17.0737 33.8324 17.0655 33.8406 17.0554 33.8406H10.579C10.569 33.8406 10.5608 33.8324 10.5608 33.8223V28.9754C10.5608 28.9654 10.569 28.9572 10.579 28.9572H17.0554C17.0655 28.9572 17.0737 28.9654 17.0737 28.9754V33.8223Z" stroke="var(--stroke-0, white)" stroke-width="6.80825" mask="url(#path-1-outside-1_22_458)"/>
<path d="M32.0408 28.9595C32.0408 28.9495 32.049 28.9413 32.0591 28.9413H36.9112C36.9213 28.9413 36.9295 28.9331 36.9295 28.923V25.6987C36.9295 25.6886 36.9213 25.6804 36.9112 25.6804H23.9061C23.896 25.6804 23.8878 25.6886 23.8878 25.6987V28.923C23.8878 28.9331 23.896 28.9413 23.9061 28.9413H28.7582C28.7683 28.9413 28.7764 28.9495 28.7764 28.9595V38.6898C28.7764 38.6999 28.7683 38.708 28.7582 38.708H25.52C25.5156 38.708 25.512 38.7116 25.512 38.716C25.512 38.7204 25.5085 38.7239 25.5041 38.7239H23.9061C23.896 38.7239 23.8878 38.7321 23.8878 38.7422V41.9507C23.8878 41.9607 23.896 41.9689 23.9061 41.9689H36.9112C36.9213 41.9689 36.9295 41.9607 36.9295 41.9507V38.7422C36.9295 38.7321 36.9213 38.7239 36.9112 38.7239H35.3132C35.3088 38.7239 35.3052 38.7204 35.3052 38.716C35.3052 38.7116 35.3017 38.708 35.2973 38.708H32.0591C32.049 38.708 32.0408 38.6999 32.0408 38.6898V28.9595Z" stroke="var(--stroke-0, white)" stroke-width="6.80825" mask="url(#path-1-outside-1_22_458)"/>
<path d="M53.5209 25.7146C53.5209 25.7045 53.5127 25.6963 53.5026 25.6963H50.2907C50.2806 25.6963 50.2724 25.7045 50.2724 25.7146V28.9389C50.2724 28.949 50.2642 28.9572 50.2542 28.9572H48.6505C48.6404 28.9572 48.6323 28.9654 48.6323 28.9754V30.5614C48.6323 30.5715 48.6241 30.5797 48.614 30.5797H45.3861C45.376 30.5797 45.3679 30.5715 45.3679 30.5614V28.9754C45.3679 28.9654 45.3597 28.9572 45.3496 28.9572H43.7619C43.7518 28.9572 43.7436 28.949 43.7436 28.9389V25.7146C43.7436 25.7045 43.7355 25.6963 43.7254 25.6963H40.4975C40.4874 25.6963 40.4792 25.7045 40.4792 25.7146V30.5614C40.4792 30.5715 40.4874 30.5797 40.4975 30.5797H42.1011C42.1112 30.5797 42.1194 30.5879 42.1194 30.5979V32.1998C42.1194 32.2099 42.1276 32.2181 42.1376 32.2181H43.7254C43.7355 32.2181 43.7436 32.2263 43.7436 32.2363V33.8223C43.7436 33.8324 43.7518 33.8406 43.7619 33.8406H45.3496C45.3597 33.8406 45.3679 33.8487 45.3679 33.8588V35.4448C45.3679 35.4549 45.3597 35.4631 45.3496 35.4631H43.7619C43.7518 35.4631 43.7436 35.4712 43.7436 35.4813V37.0832C43.7436 37.0933 43.7355 37.1014 43.7254 37.1014H42.1376C42.1276 37.1014 42.1194 37.1096 42.1194 37.1197V38.7057C42.1194 38.7158 42.1112 38.7239 42.1011 38.7239H40.4975C40.4874 38.7239 40.4792 38.7321 40.4792 38.7422V41.9666C40.4792 41.9766 40.4874 41.9848 40.4975 41.9848H43.7254C43.7355 41.9848 43.7436 41.9766 43.7436 41.9666V40.3806C43.7436 40.3705 43.7518 40.3623 43.7619 40.3623H45.3496C45.3597 40.3623 45.3679 40.3542 45.3679 40.3441V38.7422C45.3679 38.7321 45.376 38.7239 45.3861 38.7239H48.614C48.6241 38.7239 48.6323 38.7321 48.6323 38.7422V40.3441C48.6323 40.3542 48.6404 40.3623 48.6505 40.3623H50.2542C50.2642 40.3623 50.2724 40.3705 50.2724 40.3806V41.9666C50.2724 41.9766 50.2806 41.9848 50.2907 41.9848H53.5026C53.5127 41.9848 53.5209 41.9766 53.5209 41.9666V38.7422C53.5209 38.7321 53.5127 38.7239 53.5026 38.7239H51.9149C51.9048 38.7239 51.8967 38.7158 51.8967 38.7057V37.1197C51.8967 37.1096 51.8885 37.1014 51.8784 37.1014H50.2907C50.2806 37.1014 50.2724 37.0933 50.2724 37.0832V35.4813C50.2724 35.4712 50.2642 35.4631 50.2542 35.4631H48.6505C48.6404 35.4631 48.6323 35.4549 48.6323 35.4448V33.8588C48.6323 33.8487 48.6404 33.8406 48.6505 33.8406H50.2542C50.2642 33.8406 50.2724 33.8324 50.2724 33.8223V32.2363C50.2724 32.2263 50.2806 32.2181 50.2907 32.2181H51.8784C51.8885 32.2181 51.8967 32.2099 51.8967 32.1998V30.5979C51.8967 30.5879 51.9048 30.5797 51.9149 30.5797H53.5026C53.5127 30.5797 53.5209 30.5715 53.5209 30.5614V25.7146Z" stroke="var(--stroke-0, white)" stroke-width="6.80825" mask="url(#path-1-outside-1_22_458)"/>
<path d="M70.1123 25.6987C70.1123 25.6886 70.1041 25.6804 70.094 25.6804H57.0889C57.0788 25.6804 57.0706 25.6886 57.0706 25.6987V41.9507C57.0706 41.9607 57.0788 41.9689 57.0889 41.9689H70.094C70.1041 41.9689 70.1123 41.9607 70.1123 41.9507V38.7263C70.1123 38.7162 70.1041 38.708 70.094 38.708H60.3533C60.3432 38.708 60.335 38.6999 60.335 38.6898V35.4813C60.335 35.4712 60.3432 35.4631 60.3533 35.4631H66.8297C66.8397 35.4631 66.8479 35.4549 66.8479 35.4448V33.8429C66.8479 33.8328 66.8561 33.8247 66.8662 33.8247H68.4698C68.4799 33.8247 68.4881 33.8165 68.4881 33.8064V32.2204C68.4881 32.2103 68.4799 32.2022 68.4698 32.2022H60.3533C60.3432 32.2022 60.335 32.194 60.335 32.1839V28.9595C60.335 28.9495 60.3432 28.9413 60.3533 28.9413H70.094C70.1041 28.9413 70.1123 28.9331 70.1123 28.923V25.6987Z" stroke="var(--stroke-0, white)" stroke-width="6.80825" mask="url(#path-1-outside-1_22_458)"/>
<path d="M86.7037 37.1197C86.7037 37.1096 86.6956 37.1014 86.6855 37.1014H83.4576C83.4475 37.1014 83.4393 37.1096 83.4393 37.1197V38.7057C83.4393 38.7158 83.4312 38.7239 83.4211 38.7239H76.9288C76.9187 38.7239 76.9105 38.7158 76.9105 38.7057V25.7146C76.9105 25.7045 76.9024 25.6963 76.8923 25.6963H73.6803C73.6702 25.6963 73.6621 25.7045 73.6621 25.7146V41.9666C73.6621 41.9766 73.6702 41.9848 73.6803 41.9848H86.6855C86.6956 41.9848 86.7037 41.9766 86.7037 41.9666V37.1197Z" stroke="var(--stroke-0, white)" stroke-width="6.80825" mask="url(#path-1-outside-1_22_458)"/>
</g>
</g>
</svg>
